<?xml version="1.0" standalone="no"?>
<!DOCTYPE svg PUBLIC "-//W3C//DTD SVG 20010904//EN"
 "http://www.w3.org/TR/2001/REC-SVG-20010904/DTD/svg10.dtd">
<svg version="1.0" xmlns="http://www.w3.org/2000/svg"
 width="585.000000pt" height="497.000000pt" viewBox="0 0 585.000000 497.000000"
 preserveAspectRatio="xMidYMid meet">
<metadata>
Created by potrace 1.16, written by Peter Selinger 2001-2019
</metadata>
<g transform="translate(0.000000,497.000000) scale(0.100000,-0.100000)"
fill="#000000" stroke="none">
<path d="M460 4875 c0 -69 3 -85 15 -85 11 0 15 12 16 48 l1 47 10 -47 c11
-51 34 -65 43 -25 3 12 9 40 14 62 9 39 9 38 10 -22 1 -49 4 -63 16 -63 12 0
15 16 15 85 0 83 -1 85 -24 85 -21 0 -25 -7 -36 -62 l-13 -63 -8 40 c-18 82
-19 85 -39 85 -18 0 -20 -7 -20 -85z"/>
<path d="M852 4930 c0 -19 2 -27 5 -17 2 9 2 25 0 35 -3 9 -5 1 -5 -18z"/>
<path d="M1083 4941 c-27 -22 -29 -31 -8 -31 12 0 15 -13 15 -60 0 -47 3 -60
15 -60 12 0 15 16 15 85 0 47 -3 85 -7 85 -5 -1 -18 -9 -30 -19z"/>
<path d="M1176 4944 c-25 -24 -22 -118 5 -145 18 -18 23 -19 42 -6 18 11 23
26 25 70 2 31 -2 66 -8 77 -13 24 -43 26 -64 4z m49 -44 c8 -38 -3 -92 -18
-87 -7 2 -13 29 -15 60 -2 45 0 57 12 57 8 0 17 -13 21 -30z"/>
<path d="M1283 4948 c-30 -38 -21 -132 14 -155 19 -13 24 -12 42 6 41 41 20
161 -28 161 -10 0 -23 -6 -28 -12z m45 -75 c-3 -65 -23 -83 -34 -29 -8 46 2
86 22 86 12 0 14 -11 12 -57z"/>
<path d="M1950 4875 c0 -69 3 -85 15 -85 12 0 15 16 15 85 0 69 -3 85 -15 85
-12 0 -15 -16 -15 -85z"/>
<path d="M2070 4936 c0 -20 -4 -23 -21 -19 -27 7 -49 -19 -49 -60 0 -49 16
-67 60 -67 l40 0 0 85 c0 69 -3 85 -15 85 -9 0 -15 -9 -15 -24z m-5 -87 c0
-24 -5 -34 -15 -34 -16 0 -25 37 -16 62 10 26 31 8 31 -28z"/>
<path d="M2740 4936 c0 -19 -4 -23 -20 -19 -32 8 -50 -15 -50 -62 0 -51 12
-63 63 -63 l37 0 0 84 c0 68 -3 84 -15 84 -9 0 -15 -9 -15 -24z m-2 -77 c2
-14 -4 -31 -12 -38 -12 -10 -17 -8 -26 9 -6 11 -8 30 -5 41 9 28 39 20 43 -12z"/>
<path d="M3690 4945 c0 -8 5 -15 10 -15 6 0 10 7 10 15 0 8 -4 15 -10 15 -5 0
-10 -7 -10 -15z"/>
<path d="M626 4904 c-18 -18 -21 -66 -6 -95 13 -24 68 -26 77 -4 8 22 -4 30
-21 16 -15 -13 -36 -7 -36 10 0 5 16 9 35 9 40 0 46 19 19 58 -18 26 -46 28
-68 6z m49 -24 c3 -5 -3 -10 -14 -10 -12 0 -21 5 -21 10 0 6 6 10 14 10 8 0
18 -4 21 -10z"/>
<path d="M725 4912 c-3 -3 -5 -32 -5 -64 0 -44 4 -58 14 -58 11 0 16 14 18 47
2 36 7 49 21 51 14 3 17 -4 17 -47 0 -39 4 -51 15 -51 19 0 21 102 2 118 -13
11 -72 13 -82 4z"/>
<path d="M913 4913 c-7 -2 -13 -17 -13 -33 0 -23 6 -30 32 -39 22 -8 29 -14
21 -22 -8 -8 -17 -7 -31 2 -12 7 -24 10 -28 6 -13 -12 18 -37 46 -37 57 0 65
59 10 79 -39 13 -39 24 0 16 31 -7 39 2 18 23 -12 12 -33 14 -55 5z"/>
<path d="M1380 4853 c0 -35 4 -63 10 -63 6 0 10 17 10 38 0 20 4 43 9 51 15
24 31 1 31 -45 0 -32 4 -44 15 -44 11 0 15 12 15 50 0 38 4 50 15 50 11 0 15
-12 15 -50 0 -38 4 -50 15 -50 20 0 21 89 1 116 -13 16 -18 17 -35 7 -11 -7
-23 -9 -26 -4 -3 5 -21 9 -40 8 l-35 -1 0 -63z"/>
<path d="M1600 4905 c0 -41 23 -115 36 -115 13 0 16 8 27 65 3 12 7 4 12 -23
11 -62 35 -53 53 21 8 32 12 60 9 63 -11 11 -27 -7 -27 -29 0 -12 -5 -29 -10
-37 -7 -12 -10 -8 -10 15 0 17 -4 36 -9 44 -12 19 -31 5 -31 -24 0 -13 -4 -27
-10 -30 -5 -3 -10 3 -10 14 0 26 -10 51 -21 51 -5 0 -9 -7 -9 -15z"/>
<path d="M1768 4909 c-21 -12 -25 -88 -6 -107 19 -19 66 -15 78 7 34 64 -16
133 -72 100z m50 -57 c3 -26 0 -32 -16 -32 -23 0 -35 24 -26 52 9 31 39 17 42
-20z"/>
<path d="M1870 4853 c0 -49 3 -63 15 -63 11 0 15 12 15 44 0 30 5 46 15 50 27
10 17 33 -15 33 l-30 0 0 -64z"/>
<path d="M2180 4855 c0 -37 4 -65 10 -65 6 0 10 16 10 35 0 22 8 43 20 55 20
20 26 40 12 40 -4 0 -13 -5 -20 -12 -9 -9 -12 -9 -12 0 0 7 -4 12 -10 12 -6 0
-10 -28 -10 -65z"/>
<path d="M2266 4904 c-18 -18 -21 -66 -6 -95 13 -24 68 -26 77 -4 8 22 -4 30
-21 16 -15 -13 -36 -7 -36 10 0 5 16 9 35 9 40 0 46 19 19 58 -18 26 -46 28
-68 6z m49 -24 c3 -5 -3 -10 -14 -10 -12 0 -21 5 -21 10 0 6 6 10 14 10 8 0
18 -4 21 -10z"/>
<path d="M2376 4905 c-20 -20 -21 -88 -2 -105 20 -15 56 -9 70 12 15 24 0 34
-22 15 -22 -20 -32 -13 -32 24 0 33 15 45 36 28 19 -16 31 -3 18 19 -15 23
-48 27 -68 7z"/>
<path d="M2488 4909 c-21 -12 -25 -88 -6 -107 19 -19 66 -15 78 7 34 64 -16
133 -72 100z m50 -57 c3 -26 0 -32 -16 -32 -23 0 -35 24 -26 52 9 31 39 17 42
-20z"/>
<path d="M2590 4853 c0 -49 3 -63 15 -63 11 0 15 12 15 44 0 30 5 46 15 50 27
10 17 33 -15 33 l-30 0 0 -64z"/>
<path d="M2845 4912 c-3 -3 -5 -43 -5 -89 0 -67 3 -83 15 -83 10 0 15 10 15
29 0 24 3 28 23 24 13 -3 29 2 36 11 16 19 17 82 1 101 -11 13 -73 18 -85 7z
m70 -42 c3 -10 1 -29 -5 -40 -9 -17 -14 -19 -26 -9 -14 12 -19 51 -7 62 13 13
32 7 38 -13z"/>
<path d="M2967 4913 c-4 -3 -7 -33 -7 -65 0 -45 3 -58 15 -58 11 0 15 11 15
40 0 29 5 43 20 52 11 7 20 18 20 25 0 17 -27 17 -33 1 -4 -10 -6 -10 -6 0 -1
13 -14 16 -24 5z"/>
<path d="M3057 4902 c-36 -39 -15 -112 32 -112 37 0 53 20 53 67 0 57 -50 84
-85 45z m58 -31 c8 -26 -4 -51 -26 -51 -14 0 -19 7 -19 28 0 16 3 32 7 35 12
13 32 7 38 -12z"/>
<path d="M3170 4900 c-26 -48 -1 -118 39 -107 14 3 21 1 21 -8 0 -20 -19 -28
-35 -15 -20 16 -40 3 -24 -16 14 -17 61 -18 77 -2 7 7 12 42 12 88 l0 76 -40
1 c-30 2 -42 -3 -50 -17z m58 -49 c3 -27 0 -32 -15 -29 -19 3 -28 30 -19 54
10 26 31 10 34 -25z"/>
<path d="M3287 4913 c-4 -3 -7 -33 -7 -65 0 -45 3 -58 15 -58 11 0 15 11 15
40 0 29 5 43 20 52 11 7 20 18 20 25 0 17 -27 17 -33 1 -4 -10 -6 -10 -6 0 -1
13 -14 16 -24 5z"/>
<path d="M3372 4908 c-16 -16 -16 -90 0 -106 18 -18 65 -15 72 4 9 23 0 30
-18 15 -8 -7 -20 -10 -26 -6 -19 12 -10 24 23 27 28 3 32 6 29 28 -2 14 -9 31
-14 38 -13 15 -50 16 -66 0z m53 -28 c3 -5 -3 -10 -14 -10 -12 0 -21 5 -21 10
0 6 6 10 14 10 8 0 18 -4 21 -10z"/>
<path d="M3480 4905 c-18 -21 -8 -48 23 -63 15 -7 27 -17 27 -23 0 -12 -27
-12 -35 1 -3 6 -13 10 -21 10 -12 0 -12 -4 -4 -20 7 -13 21 -20 38 -20 56 0
72 54 22 73 -39 15 -39 30 1 22 29 -7 30 -6 20 14 -14 24 -53 28 -71 6z"/>
<path d="M3593 4913 c-7 -2 -13 -17 -13 -33 0 -23 6 -30 32 -39 22 -8 29 -14
21 -22 -8 -8 -17 -7 -31 2 -12 7 -24 10 -28 6 -13 -12 18 -37 46 -37 57 0 65
59 10 79 -39 13 -39 24 0 16 31 -7 39 2 18 23 -12 12 -33 14 -55 5z"/>
<path d="M3690 4855 c0 -37 4 -65 10 -65 6 0 10 28 10 65 0 37 -4 65 -10 65
-6 0 -10 -28 -10 -65z"/>
<path d="M3746 4898 c-31 -44 -7 -108 39 -108 27 0 55 33 55 65 0 32 -28 65
-55 65 -13 0 -31 -10 -39 -22z m62 -36 c5 -32 -16 -56 -34 -41 -15 12 -19 51
-7 63 14 13 38 0 41 -22z"/>
<path d="M3860 4853 c0 -35 4 -63 10 -63 6 0 10 12 10 28 0 41 11 72 25 72 16
0 25 -23 25 -66 0 -19 5 -34 10 -34 15 0 12 106 -2 117 -7 6 -28 10 -45 10
l-33 0 0 -64z"/>
<path d="M33 4584 c-11 -29 35 -45 56 -20 9 11 9 16 0 22 -7 4 -9 3 -5 -4 3
-6 2 -13 -4 -17 -5 -3 -10 3 -10 14 0 25 -28 28 -37 5z m27 -10 c0 -8 -4 -12
-10 -9 -5 3 -10 10 -10 16 0 5 5 9 10 9 6 0 10 -7 10 -16z"/>
<path d="M33 4515 c0 -14 3 -27 6 -30 4 -2 7 9 7 26 0 16 -3 29 -7 29 -3 0 -6
-11 -6 -25z"/>
<path d="M12 4425 c-1 -22 2 -35 6 -28 4 6 23 13 42 16 l35 4 -37 1 c-29 2
-37 6 -41 25 -2 12 -5 5 -5 -18z"/>
<path d="M43 4453 c9 -2 25 -2 35 0 9 3 1 5 -18 5 -19 0 -27 -2 -17 -5z"/>
<path d="M1303 3834 c-3 -8 -1 -20 5 -26 16 -16 42 -2 42 22 0 24 -38 28 -47
4z m37 -9 c0 -8 -7 -15 -15 -15 -8 0 -15 7 -15 15 0 8 7 15 15 15 8 0 15 -7
15 -15z"/>
<path d="M1574 3835 c-4 -9 -2 -21 4 -27 15 -15 44 -1 40 19 -4 23 -36 29 -44
8z m36 -10 c0 -8 -7 -15 -15 -15 -8 0 -15 7 -15 15 0 8 7 15 15 15 8 0 15 -7
15 -15z"/>
<path d="M198 3573 c-2 -5 -1 -28 3 -53 l6 -45 1 53 c2 48 -2 63 -10 45z"/>
<path d="M250 3576 c0 -2 9 -6 20 -9 11 -3 20 -1 20 4 0 5 -9 9 -20 9 -11 0
-20 -2 -20 -4z"/>
<path d="M357 3573 c-10 -10 -8 -43 2 -43 5 0 7 9 4 19 -4 14 1 21 19 24 20 4
21 4 2 6 -11 0 -24 -2 -27 -6z"/>
<path d="M242 3530 c0 -19 2 -27 5 -17 2 9 2 25 0 35 -3 9 -5 1 -5 -18z"/>
<path d="M292 3530 c0 -14 2 -19 5 -12 2 6 2 18 0 25 -3 6 -5 1 -5 -13z"/>
<path d="M385 3510 c0 -15 3 -26 8 -23 4 2 7 13 7 23 0 10 -3 21 -7 23 -5 3
-8 -8 -8 -23z"/>
<path d="M265 3490 c-19 -8 -19 -9 3 -9 12 -1 22 4 22 9 0 6 -1 10 -2 9 -2 0
-12 -4 -23 -9z"/>
<path d="M350 3490 c0 -5 5 -10 11 -10 5 0 7 5 4 10 -3 6 -8 10 -11 10 -2 0
-4 -4 -4 -10z"/>
<path d="M1603 3253 c-19 -7 -16 -40 4 -47 21 -8 36 6 31 30 -3 19 -16 25 -35
17z m27 -23 c0 -11 -4 -20 -9 -20 -14 0 -23 18 -16 30 10 17 25 11 25 -10z"/>
<path d="M1864 3245 c-8 -21 2 -45 19 -45 8 0 20 7 27 15 10 12 10 18 0 30 -7
8 -19 15 -27 15 -7 0 -16 -7 -19 -15z"/>
<path d="M1899 2943 c-13 -16 -12 -17 3 -5 9 8 22 11 28 7 17 -11 11 -25 -12
-26 -19 -1 -20 -2 -4 -6 26 -7 42 12 26 32 -16 19 -24 19 -41 -2z"/>
<path d="M1963 2945 c-10 -28 13 -37 92 -38 76 0 102 10 92 36 -4 10 -28 14
-91 16 -71 1 -87 -1 -93 -14z m27 -10 c0 -8 -4 -15 -10 -15 -5 0 -10 7 -10 15
0 8 5 15 10 15 6 0 10 -7 10 -15z m148 -3 c2 -7 -3 -12 -12 -12 -9 0 -16 7
-16 16 0 17 22 14 28 -4z"/>
<path d="M5251 2798 c1 -24 3 -36 6 -27 2 10 13 19 24 22 11 3 19 14 19 26 0
16 -6 21 -25 21 -23 0 -25 -4 -24 -42z m39 17 c0 -8 -7 -15 -15 -15 -8 0 -15
7 -15 15 0 8 7 15 15 15 8 0 15 -7 15 -15z"/>
<path d="M5443 2800 c0 -25 2 -35 4 -22 2 12 2 32 0 45 -2 12 -4 2 -4 -23z"/>
<path d="M5476 2823 c-16 -60 -17 -68 -7 -53 9 13 14 13 32 2 19 -12 21 -12
15 3 -3 9 -9 28 -12 41 -7 28 -21 31 -28 7z m24 -24 c0 -5 -4 -9 -10 -9 -5 0
-10 7 -10 16 0 8 5 12 10 9 6 -3 10 -10 10 -16z"/>
<path d="M5547 2833 c-2 -4 -7 -24 -11 -43 -3 -19 -3 -29 0 -22 3 6 12 12 19
12 7 0 16 -6 19 -12 4 -7 4 3 1 22 -6 36 -19 58 -28 43z m10 -35 c-3 -8 -6 -5
-6 6 -1 11 2 17 5 13 3 -3 4 -12 1 -19z"/>
<path d="M5601 2798 c1 -24 4 -33 6 -21 2 12 12 24 21 26 15 4 15 5 0 6 -10 0
-18 5 -18 10 0 5 8 12 18 14 13 4 11 5 -5 6 -21 1 -23 -3 -22 -41z"/>
<path d="M5321 2786 l1 -31 8 30 c8 30 8 30 9 4 1 -28 26 -46 37 -27 4 6 3 8
-4 4 -6 -3 -13 -2 -16 3 -3 5 3 11 14 14 31 8 14 36 -21 35 -26 -1 -29 -4 -28
-32z m54 14 c3 -5 -1 -10 -9 -10 -9 0 -16 5 -16 10 0 6 4 10 9 10 6 0 13 -4
16 -10z"/>
<path d="M2757 2664 c-4 -4 -19 -7 -34 -8 -38 -1 -40 -40 -3 -43 14 -1 33 -3
44 -5 26 -4 44 26 27 46 -14 17 -24 20 -34 10z m-27 -29 c0 -8 -7 -15 -15 -15
-8 0 -15 7 -15 15 0 8 7 15 15 15 8 0 15 -7 15 -15z"/>
<path d="M2094 2645 c-4 -9 -2 -21 4 -27 15 -15 44 -1 40 19 -4 23 -36 29 -44
8z m36 -10 c0 -8 -7 -15 -15 -15 -8 0 -15 7 -15 15 0 8 7 15 15 15 8 0 15 -7
15 -15z"/>
<path d="M2254 2645 c-4 -9 -2 -21 4 -27 15 -15 44 -1 40 19 -4 23 -36 29 -44
8z m36 -10 c0 -8 -7 -15 -15 -15 -8 0 -15 7 -15 15 0 8 7 15 15 15 8 0 15 -7
15 -15z"/>
<path d="M2480 2635 c0 -20 5 -25 24 -25 25 0 36 15 29 38 -3 6 -16 12 -29 12
-19 0 -24 -5 -24 -25z"/>
<path d="M2587 2647 c-8 -21 8 -39 29 -35 27 5 25 42 -2 46 -12 2 -24 -3 -27
-11z m43 -12 c0 -8 -6 -15 -14 -15 -17 0 -28 14 -19 24 12 12 33 6 33 -9z"/>
<path d="M5251 2568 c1 -24 3 -36 6 -27 2 10 13 19 24 22 11 3 19 14 19 26 0
16 -6 21 -25 21 -23 0 -25 -4 -24 -42z m39 17 c0 -8 -7 -15 -15 -15 -8 0 -15
7 -15 15 0 8 7 15 15 15 8 0 15 -7 15 -15z"/>
<path d="M5540 2567 c0 -20 4 -38 8 -41 10 -6 8 61 -2 71 -3 3 -6 -10 -6 -30z"/>
<path d="M5757 2593 c-2 -5 0 -21 4 -38 7 -29 7 -29 8 8 1 35 -3 46 -12 30z"/>
<path d="M5026 2581 c-10 -16 5 -41 24 -41 19 0 34 25 24 41 -3 5 -14 9 -24 9
-10 0 -21 -4 -24 -9z m42 -13 c-3 -7 -11 -13 -18 -13 -7 0 -15 6 -17 13 -3 7
4 12 17 12 13 0 20 -5 18 -12z"/>
<path d="M5321 2556 l1 -31 8 30 c8 30 8 30 9 4 1 -28 26 -46 37 -27 4 6 3 8
-4 4 -6 -3 -13 -2 -16 3 -3 5 3 11 14 14 31 8 14 36 -21 35 -26 -1 -29 -4 -28
-32z m54 14 c3 -5 -1 -10 -9 -10 -9 0 -16 5 -16 10 0 6 4 10 9 10 6 0 13 -4
16 -10z"/>
<path d="M5455 2581 c19 -8 19 -8 -3 -20 -28 -15 -24 -36 7 -37 19 -1 22 3 19
30 -2 22 -9 32 -23 33 -20 3 -20 3 0 -6z m15 -35 c0 -11 -19 -15 -25 -6 -3 5
1 10 9 10 9 0 16 -2 16 -4z"/>
<path d="M5491 2564 c-1 -35 5 -45 25 -37 8 3 14 18 13 37 -1 20 -3 24 -6 11
-10 -45 -17 -50 -23 -15 l-7 35 -2 -31z"/>
<path d="M5575 2580 c-4 -6 -4 -14 -1 -17 3 -4 6 -1 6 5 0 7 5 12 10 12 13 0
13 -37 1 -44 -5 -4 -12 -1 -14 4 -3 6 -4 5 -3 -2 5 -27 31 -13 31 16 0 30 -18
46 -30 26z"/>
<path d="M5621 2558 c2 -31 2 -31 6 -5 2 15 8 27 13 27 5 0 11 -12 13 -27 l4
-28 2 28 c0 15 5 27 10 27 5 0 12 -12 14 -27 4 -26 4 -26 6 5 1 30 -1 32 -34
32 -33 0 -35 -2 -34 -32z"/>
<path d="M5705 2580 c-3 -5 0 -7 9 -4 10 4 16 -3 19 -23 4 -27 4 -27 6 5 1 31
-20 45 -34 22z"/>
<path d="M5782 2560 c0 -19 2 -27 5 -17 2 9 2 25 0 35 -3 9 -5 1 -5 -18z"/>
<path d="M5815 2579 c-4 -6 -4 -13 -1 -16 3 -4 6 -1 6 6 0 8 6 11 16 7 8 -3
12 -2 9 4 -8 13 -22 13 -30 -1z"/>
<path d="M5700 2546 c0 -8 4 -17 8 -20 4 -2 8 4 8 15 0 10 -4 19 -8 19 -4 0
-8 -6 -8 -14z"/>
<path d="M5811 2544 c-1 -6 2 -13 5 -17 8 -8 34 3 34 15 0 6 -6 6 -14 -1 -11
-9 -15 -9 -19 1 -3 7 -6 8 -6 2z"/>
<path d="M5250 2338 c0 -49 5 -47 14 5 4 23 3 37 -4 37 -5 0 -10 -19 -10 -42z"/>
<path d="M5295 2349 c-5 -23 -9 -28 -16 -18 -7 11 -9 11 -9 -3 0 -29 19 -30
27 -1 l7 28 7 -30 c6 -27 7 -26 8 13 1 49 -14 56 -24 11z"/>
<path d="M5421 2374 c-1 -7 -10 -14 -21 -17 -13 -3 -20 -14 -20 -30 0 -34 16
-42 45 -23 13 9 32 16 40 16 22 0 15 34 -8 38 -9 2 -17 -1 -17 -7 0 -6 7 -8
15 -5 8 4 15 1 15 -6 0 -21 -34 -5 -41 20 -4 14 -7 20 -8 14z m-7 -33 c8 -13
-4 -42 -15 -35 -12 7 -12 44 0 44 6 0 12 -4 15 -9z"/>
<path d="M2751 2356 c-17 -20 -2 -46 25 -46 29 0 41 24 24 45 -16 19 -34 19
-49 1z"/>
<path d="M2840 2352 c0 -6 10 -8 21 -5 16 4 20 2 17 -8 -3 -8 -13 -13 -23 -12
-12 1 -14 -2 -7 -9 15 -15 44 -1 40 19 -3 19 -48 32 -48 15z"/>
<path d="M5335 2350 c-4 -6 -4 -14 -1 -17 3 -4 6 -1 6 5 0 7 5 12 10 12 6 0
10 -11 10 -25 0 -25 -14 -34 -23 -15 -3 6 -4 5 -3 -2 5 -27 31 -13 31 16 0 30
-18 46 -30 26z"/>
<path d="M5491 2328 c2 -28 2 -29 6 -8 3 14 10 28 17 32 7 5 5 8 -6 8 -14 0
-18 -8 -17 -32z"/>
<path d="M5531 2328 c2 -31 2 -31 6 -5 2 15 8 27 13 27 5 0 11 -12 13 -27 4
-26 4 -26 6 5 1 26 -3 32 -19 32 -16 0 -20 -6 -19 -32z"/>
<path d="M5446 2298 c3 -4 11 -5 19 -1 21 7 19 12 -4 10 -11 0 -18 -5 -15 -9z"/>
<path d="M190 2080 c-9 -6 -10 -10 -3 -10 7 0 14 -19 16 -42 3 -41 4 -41 5 10
1 28 1 52 0 52 -2 0 -10 -5 -18 -10z"/>
<path d="M275 2080 c3 -5 8 -10 11 -10 2 0 4 5 4 10 0 6 -5 10 -11 10 -5 0 -7
-4 -4 -10z"/>
<path d="M353 2075 c-3 -9 -3 -18 -1 -21 3 -3 8 4 11 16 6 23 -1 27 -10 5z"/>
<path d="M387 2069 c4 -13 8 -18 11 -10 2 7 -1 18 -6 23 -8 8 -9 4 -5 -13z"/>
<path d="M241 2048 c0 -14 2 -33 5 -42 7 -17 29 -21 38 -7 3 5 -2 8 -12 7 -12
-1 -19 9 -23 34 -5 29 -7 31 -8 8z"/>
<path d="M2881 2057 c-17 -21 -3 -49 23 -45 15 2 21 10 21 28 0 28 -26 38 -44
17z"/>
<path d="M3014 2055 c-9 -23 3 -45 26 -45 25 0 37 25 20 45 -16 19 -39 19 -46
0z"/>
<path d="M3104 2056 c-12 -31 4 -47 43 -44 33 3 38 6 38 28 0 22 -5 25 -38 28
-26 2 -39 -1 -43 -12z"/>
<path d="M292 2040 c0 -14 2 -19 5 -12 2 6 2 18 0 25 -3 6 -5 1 -5 -13z"/>
<path d="M354 2010 c2 -21 40 -19 42 3 1 12 1 13 -3 2 -5 -18 -30 -20 -36 -2
-2 7 -3 6 -3 -3z"/>
<path d="M3134 1755 c-10 -25 22 -53 44 -39 9 6 17 20 17 30 0 25 -52 33 -61
9z"/>
<path d="M3274 1756 c-9 -24 4 -48 23 -44 12 2 18 12 18 28 0 29 -32 41 -41
16z"/>
<path d="M3340 1755 c-19 -23 -1 -36 56 -38 46 -2 49 0 49 23 0 23 -4 25 -46
28 -32 2 -50 -2 -59 -13z m16 -22 c-10 -10 -19 5 -10 18 6 11 8 11 12 0 2 -7
1 -15 -2 -18z"/>
<path d="M810 550 c-9 -6 -10 -10 -3 -10 7 0 14 -19 16 -42 3 -41 4 -41 5 10
1 28 1 52 0 52 -2 0 -10 -5 -18 -10z"/>
<path d="M860 534 c0 -17 6 -28 20 -31 11 -3 20 -12 20 -20 0 -11 -7 -14 -21
-10 -16 4 -19 3 -11 -5 21 -21 42 0 42 41 0 22 -4 42 -9 45 -4 3 -6 -6 -3 -19
3 -19 0 -25 -13 -25 -13 0 -16 6 -13 25 3 14 1 25 -3 25 -5 0 -9 -12 -9 -26z"/>
<path d="M930 549 c0 -5 5 -7 10 -4 6 3 10 8 10 11 0 2 -4 4 -10 4 -5 0 -10
-5 -10 -11z"/>
<path d="M965 517 c0 -34 -3 -42 -17 -41 -10 1 -15 -2 -12 -7 9 -14 31 -10 38
7 8 22 8 72 -1 77 -5 3 -8 -14 -8 -36z"/>
<path d="M1025 550 c3 -5 8 -10 11 -10 2 0 4 5 4 10 0 6 -5 10 -11 10 -5 0 -7
-4 -4 -10z"/>
<path d="M2450 550 c-9 -6 -10 -10 -3 -10 7 0 14 -19 16 -42 3 -41 4 -41 5 10
1 28 1 52 0 52 -2 0 -10 -5 -18 -10z"/>
<path d="M2500 535 c0 -15 7 -28 18 -32 9 -4 20 -11 24 -17 4 -6 8 6 8 26 0
20 -4 39 -9 42 -4 3 -6 -6 -3 -19 3 -19 0 -25 -13 -25 -13 0 -16 6 -13 25 3
14 1 25 -3 25 -5 0 -9 -11 -9 -25z"/>
<path d="M2570 551 c0 -5 9 -7 20 -4 11 3 20 7 20 9 0 2 -9 4 -20 4 -11 0 -20
-4 -20 -9z"/>
<path d="M2665 550 c3 -5 8 -10 11 -10 2 0 4 5 4 10 0 6 -5 10 -11 10 -5 0 -7
-4 -4 -10z"/>
<path d="M4075 549 c-4 -6 -5 -12 -2 -15 2 -3 7 2 10 11 7 17 1 20 -8 4z"/>
<path d="M4143 545 c-3 -9 -3 -18 -1 -21 3 -3 8 4 11 16 6 23 -1 27 -10 5z"/>
<path d="M4177 539 c4 -13 8 -18 11 -10 2 7 -1 18 -6 23 -8 8 -9 4 -5 -13z"/>
<path d="M4210 549 c0 -5 5 -7 10 -4 6 3 10 8 10 11 0 2 -4 4 -10 4 -5 0 -10
-5 -10 -11z"/>
<path d="M4305 550 c3 -5 8 -10 11 -10 2 0 4 5 4 10 0 6 -5 10 -11 10 -5 0 -7
-4 -4 -10z"/>
<path d="M991 518 c0 -14 2 -33 5 -42 7 -17 29 -21 38 -7 3 5 -2 8 -12 7 -12
-1 -19 9 -23 34 -5 29 -7 31 -8 8z"/>
<path d="M2631 518 c0 -14 2 -33 5 -42 7 -17 29 -21 38 -7 3 5 -2 8 -12 7 -12
-1 -19 9 -23 34 -5 29 -7 31 -8 8z"/>
<path d="M4249 510 c-3 -26 -9 -35 -21 -34 -10 1 -15 -2 -12 -7 19 -31 52 14
41 58 -2 11 -6 4 -8 -17z"/>
<path d="M4271 518 c0 -14 2 -33 5 -42 7 -17 29 -21 38 -7 3 5 -2 8 -12 7 -12
-1 -19 9 -23 34 -5 29 -7 31 -8 8z"/>
<path d="M921 514 c0 -11 3 -14 6 -6 3 7 2 16 -1 19 -3 4 -6 -2 -5 -13z"/>
<path d="M1042 510 c0 -14 2 -19 5 -12 2 6 2 18 0 25 -3 6 -5 1 -5 -13z"/>
<path d="M2570 522 c0 -5 8 -9 17 -8 11 0 19 -7 21 -21 2 -16 -3 -23 -20 -26
l-23 -4 23 -2 c26 -1 40 24 25 48 -11 18 -43 28 -43 13z"/>
<path d="M2682 510 c0 -14 2 -19 5 -12 2 6 2 18 0 25 -3 6 -5 1 -5 -13z"/>
<path d="M4093 506 c-31 -29 -29 -46 5 -45 23 2 24 2 5 6 -13 2 -23 8 -23 12
0 5 10 15 23 24 12 8 20 17 17 20 -3 2 -15 -5 -27 -17z"/>
<path d="M4202 510 c0 -14 2 -19 5 -12 2 6 2 18 0 25 -3 6 -5 1 -5 -13z"/>
<path d="M4322 510 c0 -14 2 -19 5 -12 2 6 2 18 0 25 -3 6 -5 1 -5 -13z"/>
<path d="M4144 480 c2 -21 40 -19 42 3 1 12 1 13 -3 2 -5 -18 -30 -20 -36 -2
-2 7 -3 6 -3 -3z"/>
<path d="M2508 468 c5 -5 16 -8 23 -6 8 3 3 7 -10 11 -17 4 -21 3 -13 -5z"/>
<path d="M4510 330 c0 -39 1 -41 28 -38 24 3 27 7 27 38 0 31 -3 35 -27 38
-27 3 -28 1 -28 -38z m48 -3 c3 -22 -1 -27 -17 -27 -17 0 -21 6 -21 31 0 24 4
30 18 27 10 -2 18 -14 20 -31z"/>
<path d="M4630 327 c0 -20 4 -38 8 -41 10 -6 8 61 -2 71 -3 3 -6 -10 -6 -30z"/>
<path d="M4585 341 c-3 -7 0 -8 9 -5 19 7 23 -31 4 -42 -8 -5 -9 -2 -5 9 3 10
2 17 -3 17 -12 0 -13 -27 -2 -34 15 -9 34 11 30 34 -3 26 -22 37 -33 21z"/>
<path d="M4667 344 c-11 -11 -8 -52 4 -60 6 -3 16 -1 22 5 9 9 8 11 -5 6 -11
-4 -18 -2 -18 4 0 6 7 11 16 11 9 0 14 7 12 17 -3 18 -20 27 -31 17z m23 -14
c0 -5 -4 -10 -10 -10 -5 0 -10 5 -10 10 0 6 5 10 10 10 6 0 10 -4 10 -10z"/>
<path d="M3930 105 c-14 -16 -6 -35 16 -35 8 0 14 -7 14 -16 0 -11 -6 -15 -20
-11 -11 3 -20 1 -20 -5 0 -5 10 -8 23 -6 30 4 36 43 7 51 -13 3 -19 10 -15 17
4 6 16 8 27 4 14 -4 18 -2 14 5 -10 15 -31 14 -46 -4z"/>
<path d="M4281 90 c-1 -57 13 -65 33 -19 10 22 16 42 13 45 -2 3 -11 -10 -18
-28 l-14 -33 -6 35 -6 35 -2 -35z"/>
<path d="M4354 96 c-3 -14 -10 -26 -15 -26 -5 0 -9 -10 -8 -22 0 -18 5 -13 21
20 11 24 17 46 14 49 -3 3 -8 -6 -12 -21z"/>
<path d="M3995 91 c-4 -7 0 -8 10 -4 13 4 16 1 13 -17 -4 -29 -25 -37 -31 -13
-4 16 -5 16 -6 1 0 -9 4 -20 9 -23 16 -10 41 16 38 38 -3 23 -23 33 -33 18z"/>
<path d="M4099 84 c-6 -7 -9 -21 -6 -31 4 -14 5 -12 6 6 1 16 5 21 16 18 8 -4
17 -1 21 5 4 7 10 6 16 -3 8 -12 9 -12 6 0 -5 18 -45 22 -59 5z"/>
<path d="M4182 88 c-17 -17 -15 -58 2 -58 8 0 18 4 21 10 3 6 -1 7 -9 4 -9 -3
-16 -1 -16 5 0 6 9 11 20 11 22 0 23 1 14 24 -7 19 -16 20 -32 4z m23 -8 c3
-5 -1 -10 -10 -10 -9 0 -13 5 -10 10 3 6 8 10 10 10 2 0 7 -4 10 -10z"/>
<path d="M4398 73 c-3 -25 -2 -30 8 -22 9 7 14 5 17 -8 2 -10 4 -4 3 14 0 17
-4 29 -8 27 -3 -2 -8 2 -11 8 -2 7 -6 -2 -9 -19z"/>
<path d="M4493 93 c-7 -3 -13 -12 -13 -21 0 -13 3 -12 15 4 15 18 15 18 13 -6
-2 -17 -8 -24 -20 -22 -13 2 -18 -4 -17 -20 0 -13 3 -17 6 -10 2 6 11 12 19
12 16 0 31 48 18 59 -5 5 -15 6 -21 4z"/>
<path d="M4542 88 c-17 -17 -15 -58 2 -58 8 0 18 4 21 10 3 6 -1 7 -9 4 -9 -3
-16 -1 -16 5 0 17 37 13 44 -4 6 -17 36 -21 36 -5 0 5 6 9 12 7 7 -1 14 9 15
23 l2 25 -8 -25 -9 -25 -1 27 c-1 28 -11 30 -48 10 -27 -15 -46 -16 -38 -2 4
6 11 8 16 5 5 -4 9 -1 9 4 0 14 -13 14 -28 -1z m75 -32 c-4 -9 -11 -16 -17
-16 -11 0 -14 33 -3 44 11 10 26 -11 20 -28z"/>
<path d="M4675 90 c-3 -6 1 -7 9 -4 9 3 16 2 16 -4 0 -5 -9 -12 -20 -15 -20
-5 -29 -37 -10 -37 5 0 7 7 4 15 -4 8 -1 15 5 15 6 0 11 -8 12 -17 0 -10 5 -5
9 11 9 30 6 46 -10 46 -5 0 -12 -4 -15 -10z"/>
<path d="M4041 63 c-1 -35 -1 -36 23 -27 9 4 16 17 15 33 0 14 -3 19 -6 11
-14 -43 -16 -44 -23 -15 l-8 30 -1 -32z"/>
<path d="M4372 65 c0 -16 2 -22 5 -12 2 9 2 23 0 30 -3 6 -5 -1 -5 -18z"/>
<path d="M4452 65 c0 -16 2 -22 5 -12 2 9 2 23 0 30 -3 6 -5 -1 -5 -18z"/>
<path d="M4110 52 c0 -17 21 -25 31 -13 5 6 6 9 3 6 -4 -3 -13 0 -21 6 -9 8
-13 8 -13 1z"/>
</g>
</svg>
